<svg version="1.1" xmlns="http://www.w3.org/2000/svg" xmlns:xlink="http://www.w3.org/1999/xlink" width="15.83391" height="23.15695" viewBox="0,0,15.83391,23.15695"><g transform="translate(-312.71804,-169.3001)"><g data-paper-data="{&quot;isPaintingLayer&quot;:true}" fill-rule="nonzero" stroke="none" stroke-width="1" stroke-linecap="butt" stroke-linejoin="miter" stroke-miterlimit="10" stroke-dasharray="" stroke-dashoffset="0" style="mix-blend-mode: normal"><path d="M328.55196,188.49235c0,0.54743 -0.17418,2.40536 -2.43577,3.35645c-0.53084,0.22671 -1.11421,0.34283 -1.73352,0.34283c-0.63037,0 -1.29945,-0.11612 -2.04041,-0.35666c-0.57507,-0.18524 -1.40727,-0.41748 -2.48001,-0.69396c-1.31604,0.92067 -2.32242,1.31604 -3.32327,1.31604c-1.04785,0 -2.04317,-0.42025 -2.80625,-1.18056c-0.57231,-0.56955 -0.89302,-1.34368 -0.89302,-2.151v-0.53637c0,-0.3373 0.05806,-0.7852 0.27648,-1.26904c0.11336,-0.98703 0.35113,-1.96023 0.70778,-2.90026c0.09677,-0.27095 0.27924,-0.72437 0.78796,-1.81093c0.51148,-1.06997 1.28009,-2.18694 2.34454,-3.39239c-0.18801,0.02488 -0.36219,0.03594 -0.51701,0.03594c-1.84964,0 -3.7214,-1.35474 -3.7214,-3.94258c0,-0.87644 0.30966,-1.76117 1.10315,-3.15738c0.23501,-0.41195 0.56125,-0.76308 0.95661,-1.02573c0.05253,-0.03594 0.11889,-0.08018 0.19353,-0.13271c0.20183,-0.16865 0.43684,-0.33177 0.72714,-0.51148c0.19077,-0.11612 0.3926,-0.21289 0.60272,-0.28477c0.4949,-0.17142 1.00915,-0.34007 1.53445,-0.50319c0.75479,-0.23501 1.44322,-0.36219 2.10123,-0.38983h0.03318c1.49022,-0.04424 2.90579,0.22671 4.22459,0.81008c1.23309,0.52807 2.22289,1.44045 2.94449,2.71502c0.67737,1.19992 0.98703,2.40813 0.92344,3.59422c-0.00276,0.03318 -0.00553,0.06635 -0.00829,0.1023c-0.09677,1.09762 -0.47001,2.10953 -1.11421,3.00808c-0.03041,0.04424 -0.06635,0.08847 -0.09953,0.13271c-0.20183,0.25436 -0.55572,0.65249 -1.49022,1.49575c-0.54743,0.57231 -1.31327,1.34645 -2.33071,2.35559c-0.09953,0.14377 -0.20736,0.28754 -0.32624,0.42854c0.37601,0.09953 0.76032,0.22671 1.16121,0.37325l0.44237,0.16036c0.07465,-0.00276 0.14653,-0.00276 0.21842,-0.00276c1.57316,0 2.52701,0.68567 3.05232,1.26351c0.01382,0.01382 0.02488,0.02765 0.03871,0.04147c0.57507,0.65802 0.89302,1.52063 0.94279,2.56295c0.00276,0.047 0.00276,0.09677 0.00276,0.14653z" fill="#00cccc"/><path d="M325.5118,188.49152c0,0.2104 -0.19464,0.39702 -0.58365,0.55904c-0.37325,0.16202 -0.92427,0.12552 -1.65362,-0.10949c-0.72963,-0.23528 -1.7996,-0.53139 -3.20991,-0.88777c-0.66493,-0.08128 -1.24028,0.0647 -1.72661,0.43794c-0.84326,0.61599 -1.44349,0.92399 -1.79987,0.92399c-0.24302,0 -0.462,-0.09732 -0.65664,-0.29141v-0.53443c0,-0.01631 0.02018,-0.04866 0.0611,-0.09704c0.04037,-0.04894 0.06442,-0.10147 0.07299,-0.15759c0.00774,-0.05695 0.0365,-0.15013 0.08516,-0.27924c0.06442,-0.89054 0.25934,-1.75647 0.58365,-2.59834c0.08101,-0.24247 0.30772,-0.76032 0.68097,-1.55381c0.48633,-1.01965 1.36967,-2.1933 2.65087,-3.52095c0.37269,-0.35583 0.90768,-0.89026 1.60496,-1.60274c0.30772,-0.29113 0.61627,-0.57452 0.92427,-0.84962c0.43767,-0.42052 0.66438,-0.7523 0.68097,-0.9956c0.03207,-0.04866 0.07299,-0.12967 0.12137,-0.24275c0.01604,-0.17805 0.00802,-0.42052 -0.02433,-0.72852c-0.01631,-0.03235 -0.0365,-0.10534 -0.06083,-0.21842c-0.02433,-0.11336 -0.05281,-0.29141 -0.08516,-0.53443c-0.4866,-0.97127 -1.41889,-1.45704 -2.79658,-1.45704c-0.92427,0 -1.62956,0.23307 -2.11589,0.69838c-0.04866,0.01604 -0.11336,0.04037 -0.19436,0.07216c-0.27593,0.17667 -0.44596,0.34532 -0.51093,0.50568c-0.34034,0.78686 -0.71359,1.18001 -1.11863,1.18001c-0.45425,0 -0.68097,-0.2997 -0.68097,-0.89966c0,-0.27565 0.23501,-0.82695 0.7053,-1.65362c0.09732,-0.0647 0.22671,-0.154 0.389,-0.26763c0.08101,-0.08101 0.22671,-0.18635 0.43794,-0.31629c0.46974,-0.16202 0.95191,-0.31989 1.44681,-0.47416c0.49434,-0.154 0.93643,-0.23915 1.32544,-0.25547c1.03735,-0.03235 2.01027,0.15427 2.91823,0.55904c0.61599,0.25961 1.11863,0.73377 1.50791,1.42276c0.389,0.68926 0.56733,1.33345 0.53499,1.93314c-0.04866,0.5513 -0.23528,1.05394 -0.55932,1.50791c-0.19436,0.24302 -0.6077,0.64862 -1.24001,1.21567c-0.56789,0.60023 -1.44322,1.48358 -2.62654,2.65087c-0.09732,0.22727 -0.31629,0.47831 -0.65664,0.75396c-0.01631,0.06497 -0.05695,0.16229 -0.12137,0.29196c-0.21095,0.37325 -0.51066,0.78658 -0.89994,1.24028c0.01604,0.1457 -0.04866,0.31629 -0.19436,0.51066c-0.1786,0.27593 -0.26763,0.42992 -0.26763,0.46227c-0.12994,0.308 -0.30026,0.76225 -0.51093,1.36193c-0.04866,0.19464 -0.12994,0.49462 -0.24302,0.89994c0.37269,-0.11336 0.86704,-0.25132 1.48331,-0.41361c0.37297,-0.06442 0.73764,-0.09732 1.0943,-0.09732c0.7299,0 1.57261,0.1786 2.52922,0.53526c0.22671,0.08128 0.56733,0.20266 1.02131,0.36467c0.22671,-0.01604 0.4537,-0.02433 0.68097,-0.02433c0.37269,0 0.64005,0.08903 0.80234,0.26763c0.1128,0.13022 0.17805,0.3655 0.19436,0.70613z" fill="#ffffff"/></g></g></svg>