<svg version="1.1" xmlns="http://www.w3.org/2000/svg" xmlns:xlink="http://www.w3.org/1999/xlink" width="14.51125" height="23.89136" viewBox="0,0,14.51125,23.89136"><g transform="translate(-312.74438,-168.05432)"><g data-paper-data="{&quot;isPaintingLayer&quot;:true}" fill-rule="nonzero" stroke="none" stroke-width="1" stroke-linecap="butt" stroke-linejoin="miter" stroke-miterlimit="10" stroke-dasharray="" stroke-dashoffset="0" style="mix-blend-mode: normal"><path d="M327.20912,188.18437c-0.06573,0.63635 -0.31668,1.23684 -0.72,1.73277c-0.59153,0.72896 -1.28165,1.24879 -2.04945,1.54456c-0.70506,0.27187 -1.49078,0.36448 -2.45875,0.28979c-0.11353,-0.00896 -0.20017,-0.01195 -0.2629,-0.01494c-0.01195,0.00299 -0.0239,0.00598 -0.03884,0.00896c-0.51983,0.13743 -0.95303,0.20017 -1.36531,0.20017c-0.37046,0 -0.69908,-0.06274 -0.9829,-0.14639c-0.41228,0.02689 -0.7439,0.03884 -1.01278,0.03884h-1.25775c-0.57062,-0.0239 -2.27352,-0.08963 -3.31916,-1.5356c-0.14041,-0.18523 -0.40033,-0.54971 -0.6005,-1.05161c-0.08664,-0.17626 -0.16431,-0.3585 -0.22705,-0.5527c-0.17925,-0.53776 -0.21809,-1.11137 -0.10755,-1.66705c0.41228,-2.11518 2.0136,-3.13094 3.59102,-3.44762c-0.01793,-1.55352 -0.06871,-3.45061 -0.15535,-5.67932c-0.00299,-0.08066 -0.00299,-0.16431 0,-0.24797c-0.57361,-0.26589 -1.07551,-0.66323 -1.46688,-1.1741c-0.53178,-0.67817 -0.82157,-1.51767 -0.82157,-2.38107c0,-1.50871 0.82755,-2.80231 2.46173,-3.84795c0.01494,-0.00896 0.02689,-0.01793 0.04183,-0.0239c0.10755,-0.06871 0.18523,-0.12249 0.24199,-0.16133c0.19419,-0.31668 0.44216,-0.6005 0.73494,-0.83651c0.95303,-0.77079 2.06738,-1.17709 3.22057,-1.17709c2.0853,0 3.75833,1.37726 4.17061,3.4297c0.11054,0.55867 0.07469,1.13527 -0.10158,1.67302c-0.03286,0.38838 -0.07768,1.11137 -0.12548,2.43485c-0.00299,0.15236 -0.01195,0.35253 -0.02988,0.6961c-0.01195,0.17626 -0.01793,0.29875 -0.02091,0.36747v2.67982c0.00299,0.08963 0.01494,0.25693 0.02988,0.49892c0.04481,0.6483 0.0478,0.72896 0.0478,0.86041v2.95767c0.83651,0.36448 1.56248,1.00381 2.10024,1.86721c0.65427,1.03966 0.54373,2.09427 0.48398,2.66489z" fill="#00cccc"/><path d="M323.94075,187.84349c-0.22795,0.28023 -0.4556,0.46426 -0.68325,0.5521c-0.22795,0.08753 -0.56943,0.11383 -1.02503,0.07887c-0.50818,-0.03525 -0.84069,-0.03525 -0.99873,0c-0.01763,0 -0.1443,0.03047 -0.38091,0.09202c-0.23631,0.06124 -0.41646,0.09232 -0.53865,0.09232c-0.03525,0 -0.10098,-0.03107 -0.19718,-0.09232c-0.0965,-0.06154 -0.17059,-0.09202 -0.22317,-0.09202c-0.08813,0 -0.31997,0.01315 -0.6964,0.03944c-0.37703,0.02629 -0.67011,0.03944 -0.88043,0.03944c-0.36777,0 -0.74479,0 -1.12989,0c-0.4556,-0.01763 -0.7185,-0.07887 -0.78841,-0.18373c-0.15744,-0.21032 -0.23661,-0.36777 -0.23661,-0.47293c-0.05258,-0.05288 -0.0962,-0.13145 -0.13115,-0.23661c0.14012,-0.7182 0.82337,-1.0071 2.04975,-0.86698c0.89327,0.08783 1.41908,0.07887 1.57653,-0.02659c0.06961,-1.87408 0.02629,-4.87029 -0.13115,-8.98712c0.06961,-0.77079 0.13982,-2.03213 0.21002,-3.78432c-0.12279,-0.01733 -0.29816,0.06184 -0.52551,0.23661c-0.2629,0.22795 -0.42961,0.3594 -0.49952,0.39406c-0.22795,0.08783 -0.4556,0.13145 -0.68325,0.13145c-0.29786,0 -0.51655,-0.0962 -0.65666,-0.28919c-0.08783,-0.10546 -0.13145,-0.22765 -0.13145,-0.36777c0,-0.31548 0.31548,-0.67429 0.94615,-1.07731c0.73583,-0.4553 1.17351,-0.86728 1.31392,-1.23535c0.36777,-0.29786 0.75286,-0.44694 1.15618,-0.44694c0.52551,0 0.84069,0.2629 0.94586,0.78841c-0.03525,0.07021 -0.06991,0.167 -0.10516,0.28919c-0.07021,0.54313 -0.13115,1.57653 -0.18403,3.10107c0,0.08783 -0.00896,0.28023 -0.02629,0.57809c-0.01763,0.29816 -0.02629,0.46456 -0.02629,0.49952v2.81157c0,0.03525 0.01315,0.24976 0.03944,0.64382c0.02629,0.39406 0.03973,0.60886 0.03973,0.64382v5.99151c0.47293,0.08783 0.79678,0.0965 0.97215,0.02629c0.22765,-0.08724 0.42931,-0.13115 0.60438,-0.13115c0.40302,0 0.7445,0.22795 1.02503,0.68325c0.03466,0.05198 0.03466,0.24468 0,0.57749z" fill="#ffffff"/></g></g></svg>