<svg version="1.1" xmlns="http://www.w3.org/2000/svg" xmlns:xlink="http://www.w3.org/1999/xlink" width="18.79735" height="23.98106" viewBox="0,0,18.79735,23.98106"><g transform="translate(-310.60133,-168.00947)"><g data-paper-data="{&quot;isPaintingLayer&quot;:true}" fill-rule="nonzero" stroke="none" stroke-width="1" stroke-linecap="butt" stroke-linejoin="miter" stroke-miterlimit="10" stroke-dasharray="" stroke-dashoffset="0" style="mix-blend-mode: normal"><path d="M329.39867,183.5293c0,1.20346 -0.22192,2.29312 -0.66006,3.24906c-0.13941,0.36986 -0.34141,0.7511 -0.61738,1.1807c-0.12518,0.19346 -0.27313,0.3727 -0.43814,0.53487c-2.30166,2.25614 -5.44546,3.43399 -9.34604,3.49659h-0.05121c-0.78524,0 -1.59324,-0.18777 -2.40408,-0.56048c-0.04837,-0.01992 -0.09389,-0.04268 -0.13941,-0.06828c-0.71411,-0.36986 -1.45667,-0.92465 -2.27321,-1.69281c-1.07828,-1.00146 -1.70419,-1.88628 -1.98586,-2.82515c-0.03699,-0.0882 -0.08535,-0.202 -0.1451,-0.33572c-0.11665,-0.27028 -0.19631,-0.55479 -0.2333,-0.84783c-0.05121,-0.11665 -0.09389,-0.23614 -0.13087,-0.36132c-0.1138,-0.39831 -0.1707,-0.82507 -0.1707,-1.2689c0,-1.20915 0.40115,-2.44676 1.19777,-3.68151c0.24752,-0.38693 0.50927,-0.71696 0.7767,-0.99577c-0.26175,-0.19915 -0.50073,-0.43245 -0.71411,-0.69989c-0.0569,-0.06828 -0.10811,-0.14225 -0.15932,-0.21622c-0.51496,-0.77386 -0.61738,-1.60746 -0.64583,-2.16794c-0.00285,-0.02276 -0.00285,-0.04837 -0.00569,-0.07113c-0.00854,-0.10811 -0.0569,-0.52065 -0.27028,-1.84929c-0.07682,-0.18777 -0.13372,-0.38124 -0.17355,-0.58324c-0.05406,-0.28735 -0.09389,-0.48651 -0.11665,-0.59177c-0.05975,-0.24183 -0.09104,-0.49504 -0.09104,-0.75394c0,-0.93887 0.31296,-1.79808 0.90473,-2.48659c0.05121,-0.06259 0.10527,-0.11949 0.16217,-0.17639c0.86774,-0.86774 2.04845,-1.32865 3.50797,-1.36563c0.02845,-0.00285 0.05406,-0.00285 0.08251,-0.00285c0.33572,0 1.20631,-0.01138 3.44253,-0.07397h0.08535c0.09958,0 0.60315,-0.01138 2.93326,-0.16217c0.24468,-0.0313 0.49504,-0.06259 0.7511,-0.09104c0.27882,-0.03414 0.53487,-0.05121 0.77955,-0.05121c0.77101,0 1.43107,0.16786 2.01431,0.50927c0.69989,0.41538 1.24045,1.01853 1.57332,1.74687c0.6316,1.37417 0.4296,2.90481 -0.54341,4.10258c-0.13656,0.16786 -0.2902,0.32149 -0.45806,0.45806c-0.21622,0.31865 -0.47797,0.68282 -0.79377,1.09535c1.94033,1.08397 2.99585,2.55202 3.56771,3.87498c0.10811,0.17355 0.20484,0.36132 0.29304,0.56332c0.08535,0.19062 0.15079,0.39262 0.19631,0.59746c0.19915,0.90189 0.29873,1.76679 0.29873,2.57194zM310.92282,173.79918c-0.08251,-0.16786 -0.15079,-0.34425 -0.20484,-0.52918c0.05121,0.18493 0.11949,0.36132 0.19915,0.52918z" fill="#00cccc"/><path d="M326.04377,181.62852c0.15022,0.68424 0.22533,1.31812 0.22533,1.90193c0,0.8006 -0.14197,1.48512 -0.42534,2.05215c-0.05007,0.16701 -0.16701,0.39233 -0.35023,0.6757c-1.7187,1.68485 -4.12079,2.55259 -7.2074,2.60267c-0.33401,0 -0.70074,-0.0919 -1.10104,-0.2754c-0.45037,-0.23386 -0.97614,-0.63417 -1.57645,-1.20147c-0.68424,-0.63388 -1.06804,-1.14258 -1.1514,-1.52638c-0.05007,-0.13343 -0.13372,-0.33373 -0.25008,-0.60059c0,-0.03329 -0.05861,-0.4003 -0.17526,-1.10104c-0.03357,0.05007 -0.05007,0.14197 -0.05007,0.2754c-0.03357,-0.11665 -0.05007,-0.25037 -0.05007,-0.4003c0,-0.60059 0.2333,-1.26378 0.70074,-1.98955c0.46688,-0.72578 0.97614,-1.08852 1.52638,-1.08852c0.26687,0 0.52577,0.10043 0.77585,0.30158c0.06657,0.05036 0.10043,0.15932 0.10043,0.32633c0,0.06714 -0.02959,0.15534 -0.08763,0.26402c-0.05889,0.10868 -0.09645,0.19659 -0.11266,0.26345c-0.23358,0.20115 -0.46744,0.40201 -0.70074,0.60315c-0.33401,0.31808 -0.51723,0.58608 -0.55052,0.80373c-0.03357,0.134 -0.05036,0.27626 -0.05036,0.42704c0,0.83759 0.37555,1.66237 1.12636,2.47435c0.75081,0.81198 1.54288,1.21797 2.37734,1.21797c0.14993,0 0.30841,-0.01679 0.47541,-0.05007c0.28337,-0.01707 0.70074,-0.05064 1.25098,-0.10072c0.65067,-0.1505 1.31783,-0.40059 2.00207,-0.75195c0.83417,-0.43444 1.35141,-0.89819 1.55141,-1.39152c0.20029,-0.49248 0.30044,-1.03191 0.30044,-1.61685c0,-0.56788 -0.10015,-1.09421 -0.30044,-1.57901c-0.05007,-0.134 -0.1249,-0.32604 -0.22504,-0.57669c-0.66774,-1.0026 -1.41001,-1.62908 -2.22712,-1.88002c-0.20029,-0.06629 -0.61766,-0.1084 -1.25126,-0.1249c-0.63417,-0.01707 -1.09307,-0.04182 -1.37644,-0.07568c-0.55052,-0.06629 -0.99264,-0.20854 -1.32637,-0.42619c-0.10015,-0.11636 -0.14993,-0.25833 -0.14993,-0.42562c0,-0.40115 0.16644,-0.70216 0.50045,-0.90274c0.26687,-0.16701 0.75906,-0.8356 1.47659,-2.00549c0.48338,-0.68509 1.18412,-1.70448 2.10222,-3.05816c-2.05215,0 -4.08779,0.1249 -6.10636,0.37526c0,0.25037 0.05832,0.70927 0.17526,1.37644c0.14993,0.88425 0.2333,1.41001 0.25008,1.57674c0.0165,0.20001 -0.06657,0.40457 -0.25008,0.61283c-0.18379,0.20883 -0.41737,0.33799 -0.70074,0.38778c-0.26715,0.05036 -0.50073,-0.05007 -0.70074,-0.30015c-0.06686,-0.10043 -0.10897,-0.30044 -0.12518,-0.60059c0,-0.25037 -0.13372,-1.1844 -0.4003,-2.80296c-0.01679,-0.03329 -0.05007,-0.07511 -0.10015,-0.12518c-0.10043,-0.51666 -0.15022,-0.76703 -0.15022,-0.75081c0,-0.18351 0.05007,-0.33344 0.15022,-0.45037c0.28337,-0.28337 0.74199,-0.43359 1.37644,-0.45037c0.51666,0 1.6931,-0.02504 3.52845,-0.07539c0.35023,0 1.42652,-0.05804 3.2283,-0.17497c0.26687,-0.03329 0.54198,-0.06629 0.82564,-0.10015c0.4168,-0.05007 0.69647,-0.03329 0.83844,0.05007c0.1414,0.08364 0.24581,0.20001 0.31267,0.35023c0.13343,0.28394 0.09161,0.55906 -0.1249,0.82564c-0.11693,0.06686 -0.2589,0.19204 -0.42534,0.37526c-0.21708,0.35023 -0.54682,0.8134 -0.98866,1.38896c-0.44212,0.57556 -0.76333,1.03048 -0.96334,1.36392c-0.26715,0.46744 -0.6757,1.1679 -1.22651,2.10222c2.98618,0.45037 4.84628,1.67688 5.5806,3.67895c0.06657,0.06743 0.13372,0.17583 0.20029,0.32604z" fill="#ffffff"/></g></g></svg>