<svg version="1.1" xmlns="http://www.w3.org/2000/svg" xmlns:xlink="http://www.w3.org/1999/xlink" width="17.42721" height="23.15971" viewBox="0,0,17.42721,23.15971"><g transform="translate(-311.71734,-168.53204)"><g data-paper-data="{&quot;isPaintingLayer&quot;:true}" fill-rule="nonzero" stroke="none" stroke-width="1" stroke-linecap="butt" stroke-linejoin="miter" stroke-miterlimit="10" stroke-dasharray="" stroke-dashoffset="0" style="mix-blend-mode: normal"><path d="M329.14454,178.56408v1.43297c0,0.84972 -0.14803,2.05767 -0.46483,3.80152c-0.13027,0.81123 -0.37897,1.64614 -0.73721,2.48401c-0.00592,0.01184 -0.01184,0.02072 -0.0148,0.03257c-0.63655,1.43593 -1.68463,2.6883 -3.1176,3.72158c-1.52771,1.09841 -3.10872,1.65502 -4.70452,1.65502c-0.64543,0 -1.26125,-0.10066 -1.83858,-0.29607c-2.04583,-0.66023 -3.66236,-1.91556 -4.80223,-3.73046c-0.24574,-0.39969 -0.48851,-0.89413 -0.7905,-1.61653c-0.00592,-0.01776 -0.01184,-0.03257 -0.02072,-0.05033c-0.37305,-0.93558 -0.57141,-1.68463 -0.6247,-2.35966c-0.00888,-0.11547 -0.04145,-0.39377 -0.14803,-0.93854c-0.03849,-0.20429 -0.05921,-0.41153 -0.05921,-0.61878v-1.26717c-0.13027,-0.50036 -0.14211,-1.03624 -0.0148,-1.5662c0.04737,-0.20429 0.11547,-0.40265 0.19837,-0.58622c0,-0.3612 0.06217,-0.72241 0.1806,-1.06585c0.03257,-0.14803 0.07698,-0.29311 0.13027,-0.43818c0.00296,-0.00296 0.05625,-0.15396 0.13027,-0.57141c0.08882,-0.5122 0.25462,-1.17243 0.50332,-2.00438c0.00296,-0.00888 0.00592,-0.02072 0.00888,-0.02961c0.48259,-1.5514 1.45666,-3.02286 2.97845,-4.49728c0.01184,-0.01184 0.02072,-0.02072 0.03257,-0.02961c0.76978,-0.72833 1.65798,-1.19019 2.64093,-1.37968c0.17764,-0.03257 0.35824,-0.05033 0.5418,-0.05625c0.11251,-0.00296 0.41153,-0.02072 0.90005,-0.04737c0.01776,0 0.03553,-0.00296 0.05329,-0.00296c1.44185,-0.05921 2.80673,0.2487 4.07094,0.90893c1.45962,0.74609 2.61428,1.86819 3.43439,3.33669c0.38785,0.69576 0.71945,1.53955 1.01551,2.58764c0.3464,1.18723 0.51812,2.23235 0.51812,3.19162z" fill="#00cccc"/><path d="M325.8869,179.99734c0,0.64247 -0.13945,1.72785 -0.41686,3.25527c-0.08675,0.55572 -0.26024,1.13749 -0.52108,1.74503c-0.39969,0.90301 -1.08065,1.7018 -2.04406,2.39608c-0.9637,0.69428 -1.89691,1.04157 -2.79962,1.04157c-0.29518,0 -0.56431,-0.04323 -0.80738,-0.12997c-1.31958,-0.41657 -2.34368,-1.20648 -3.07289,-2.37003c-0.13945,-0.22531 -0.32153,-0.60753 -0.54713,-1.14578c-0.24307,-0.60753 -0.37749,-1.07621 -0.40354,-1.40632c-0.02605,-0.32952 -0.09119,-0.76356 -0.19541,-1.30181v-1.9274c0.06928,-0.03434 0.03464,-0.08645 -0.10422,-0.15603h0.15632c0,-0.08675 0.03434,-0.25166 0.10422,-0.49473c0.06898,-0.24307 0.10422,-0.42545 0.10422,-0.54713c0,-0.10422 -0.02605,-0.19955 -0.07816,-0.28659c0.06898,0 0.12997,-0.02605 0.18208,-0.07816c-0.01747,-0.03464 -0.06099,-0.05211 -0.12997,-0.05211c0.01717,-0.01717 0.04767,-0.04323 0.09119,-0.07816c0.04323,-0.03464 0.07372,-0.06069 0.09149,-0.07816c-0.01776,-0.01747 -0.03908,-0.0305 -0.06543,-0.03938c-0.02605,-0.00829 -0.04796,-0.02132 -0.06514,-0.03908c0.10451,-0.27771 0.19955,-0.65964 0.28659,-1.14578c0.06898,-0.3991 0.20843,-0.94594 0.41657,-1.64051c0.31265,-1.00663 1.0244,-2.0485 2.13554,-3.1253c0.31265,-0.29488 0.65105,-0.47726 1.01581,-0.54684c0.05211,0 0.39051,-0.01747 1.01581,-0.0524c0.86807,-0.03434 1.68374,0.14774 2.44789,0.54713c0.88584,0.4515 1.57982,1.12861 2.08343,2.03132c0.26084,0.46868 0.50361,1.10256 0.72922,1.90105c0.26084,0.88524 0.39081,1.6494 0.39081,2.29157v1.43267zM324.16823,177.10683c-0.10362,-0.24278 -0.22501,-0.55542 -0.36328,-0.93765c-0.1735,-0.78132 -0.68836,-1.50136 -1.54459,-2.16159c-0.85653,-0.65964 -1.64792,-0.95452 -2.37476,-0.88524c-0.32864,0.03494 -0.88258,0.58207 -1.66154,1.64081c-0.38074,0.50361 -0.76119,1.51054 -1.14164,3.02078c-0.3461,1.40632 -0.51072,2.49141 -0.49295,3.25527c0.03434,0.97229 0.08645,1.6494 0.15573,2.03103c0.1208,0.71204 0.38045,1.3631 0.77836,1.95346c0.38074,0.52078 0.67504,0.85919 0.88258,1.01581c0.77836,0.55572 1.5135,0.83314 2.206,0.83314c0.15544,0 0.30258,-0.01717 0.44114,-0.05211c0.32864,-0.05211 0.71767,-0.26883 1.16769,-0.65105c0.38074,-0.34729 0.66615,-0.66823 0.85682,-0.9637c0.25936,-0.43374 0.50184,-1.08479 0.72685,-1.95316c0.34581,-1.26717 0.5193,-2.6128 0.5193,-4.03659c0.00059,-0.76356 -0.05152,-1.46672 -0.15573,-2.10919z" fill="#ffffff"/></g></g></svg>