<svg version="1.1" xmlns="http://www.w3.org/2000/svg" xmlns:xlink="http://www.w3.org/1999/xlink" width="19.35127" height="23.81913" viewBox="0,0,19.35127,23.81913"><g transform="translate(-310.32437,-168.09044)"><g data-paper-data="{&quot;isPaintingLayer&quot;:true}" fill-rule="nonzero" stroke="none" stroke-width="1" stroke-linecap="butt" stroke-linejoin="miter" stroke-miterlimit="10" stroke-dasharray="" stroke-dashoffset="0" style="mix-blend-mode: normal"><path d="M329.67563,187.6249c0,1.59012 -0.85075,2.98844 -2.27381,3.74019c-0.68988,0.36505 -1.49422,0.54448 -2.45943,0.54448c-0.40526,0 -0.84456,-0.03094 -1.34263,-0.09281c-0.03712,-0.00309 -0.07425,-0.00928 -0.11137,-0.01547c-0.77031,-0.12065 -1.12608,-0.13303 -1.24364,-0.13303h-0.03712c-0.0495,0.00619 -0.099,0.00928 -0.14849,0.00928c-0.07734,0.00619 -0.18871,0.01856 -0.3403,0.03403c-0.40217,0.05259 -0.75484,0.07734 -1.07967,0.07734c-0.17634,0 -0.54448,0.00928 -1.28076,0.0495h-0.03712c-0.20109,0.00928 -0.37742,0.01237 -0.5352,0.01237c-0.41764,0 -0.76722,-0.02784 -1.08586,-0.08662c-1.04564,-0.17943 -1.97373,-0.72081 -2.62339,-1.54062c-0.77959,-0.97758 -0.94355,-1.95517 -0.94355,-2.60483c0,-0.84456 0.26296,-1.6489 0.73938,-2.3264c-0.30936,-0.02475 -0.61254,-0.06187 -0.90952,-0.11756c-1.82833,-0.32792 -2.77807,-1.88092 -3.13693,-2.46871c-0.46095,-0.75175 -0.61254,-1.65509 -0.42073,-2.51511c0.06187,-0.28461 0.16087,-0.59707 0.31555,-1.00233c0.18252,-0.73319 0.60016,-1.37357 1.16939,-1.83452c0.7765,-1.06111 1.99848,-2.79354 3.6381,-5.16325c0.39598,-0.56923 0.61563,-0.9219 0.73319,-1.12298c0.30317,-0.54757 0.73009,-1.05183 1.33644,-1.58703c0.61872,-0.54757 1.16629,-0.90334 1.72624,-1.12608c0.10518,-0.04331 0.21346,-0.08043 0.32483,-0.11137c0.78578,-0.22583 1.63343,-0.20109 2.44705,0.07115c0.07425,0.02166 0.1454,0.0495 0.21655,0.07734c0.12993,0.02166 0.26296,0.0495 0.3898,0.08353c0.85384,0.23202 1.59631,0.69297 2.14697,1.33335c0.80434,0.94046 0.97449,2.06344 1.03636,3.13693c0.00619,0.10209 0.00928,0.20727 0.00619,0.30936c-0.01237,0.3372 -0.01547,1.00233 0.02475,2.26453c0.00619,0.11446 0.01237,0.2413 0.01856,0.37742c2.17482,0.45786 3.30399,2.26453 3.30399,4.05264c0,0.39289 -0.0495,0.78578 -0.15468,1.20651c-0.12374,0.4857 -0.34958,0.94046 -0.66822,1.33026c-0.35267,0.43001 -0.76412,0.78887 -1.22198,1.07349c1.34882,0.59088 2.48108,1.93351 2.48108,4.06502z" fill="#00cccc"/><path d="M325.80954,188.35809c-0.30874,0.16334 -0.90736,0.19057 -1.79585,0.08167c-0.9253,-0.14478 -1.61518,-0.19954 -2.06839,-0.16303c-0.0727,0 -0.28152,0.01856 -0.62584,0.05445c-0.27224,0.0365 -0.499,0.05445 -0.68029,0.05445c-0.32638,0 -0.81641,0.01856 -1.46916,0.05445c-0.41795,0.01856 -0.70751,0.0099 -0.87085,-0.02537c-0.23604,-0.03403 -0.42166,-0.13674 -0.55778,-0.30782c-0.13612,-0.17108 -0.20418,-0.33287 -0.20418,-0.48663c0,-0.27348 0.15406,-0.49993 0.4625,-0.67967c0.30843,-0.17912 0.62584,-0.26884 0.95253,-0.26884c0.14509,0 0.27224,0 0.38082,0h1.65973c0.1092,0 0.26296,-0.02722 0.46281,-0.0826c0.03589,-0.65956 -0.03681,-1.89639 -0.21779,-3.71018c0,-0.29328 -0.00495,-0.60016 -0.01361,-0.92128c-0.00928,-0.3205 -0.08631,-0.5816 -0.2314,-0.783c-1.01594,0.09095 -2.14945,0.24501 -3.40144,0.4625c-0.998,0.1816 -1.70551,0.27224 -2.12222,0.27224c-0.30874,0 -0.60821,-0.02722 -0.89808,-0.08167c-0.21748,-0.0362 -0.499,-0.33566 -0.84363,-0.89808c0.0362,-0.16303 0.13612,-0.44424 0.29946,-0.84363c0,-0.03589 0,-0.06311 0,-0.08167c0.05445,0 0.12653,-0.0362 0.21779,-0.1089c0.76196,-1.01564 2.12222,-2.93894 4.08141,-5.76867c0.38082,-0.54448 0.68029,-1.00697 0.89808,-1.3878c0.1089,-0.19954 0.3171,-0.43527 0.62553,-0.70751c0.30843,-0.27224 0.55314,-0.44455 0.73473,-0.51694c0.12684,-0.0362 0.27224,-0.02722 0.43527,0.02722c0.1092,0.05445 0.21779,0.09961 0.32669,0.13581c0.29018,0.05445 0.44455,0.08167 0.4625,0.08167c0.19985,0.05445 0.35391,0.14571 0.46281,0.27224c0.1089,0.12715 0.18098,0.499 0.21748,1.11556c-0.01825,0.56242 -0.00928,1.39739 0.02722,2.50367c0.0362,0.81641 0.1092,2.05014 0.21779,3.70059c0.19954,0.01856 0.53489,0 1.00697,-0.05445c0.54417,-0.07208 0.90705,-0.1089 1.08864,-0.1089c0.6707,0 1.00666,0.25399 1.00666,0.76196c0,0.1089 -0.01825,0.23604 -0.05445,0.38082c-0.32669,0.39908 -0.78918,0.59862 -1.38749,0.59862c-0.09126,0 -0.2314,0 -0.42197,0c-0.19026,0 -0.33102,0 -0.42166,0c-0.21748,0 -0.40805,0.02753 -0.57139,0.08198c0,0.63512 0.03589,1.58765 0.1089,2.85696c0.1089,1.46947 0.21779,2.37683 0.32669,2.72115c0.48972,-0.01794 1.21517,-0.00866 2.17698,0.02722c0.45322,0.0365 0.67998,0.37216 0.67998,1.00697c0,0.32638 -0.15406,0.57139 -0.4625,0.73443zM320.96586,179.51466c-0.16303,-1.50567 -0.26327,-3.13848 -0.29946,-4.89813c-0.0365,0 -0.06373,-0.00897 -0.08167,-0.02722c0.05445,-0.05445 0.08167,-0.09961 0.08167,-0.13612c0,-0.01794 -0.02722,-0.07208 -0.08167,-0.16303c-0.0365,-0.07208 -0.0365,-0.13581 0,-0.19057c0.05445,-0.07208 0.08167,-0.16303 0.08167,-0.27193c-0.25399,0.25399 -0.50797,0.58964 -0.76196,1.00666c-0.41764,0.67162 -0.66234,1.06142 -0.73443,1.17032c-0.68957,0.90736 -1.56073,2.18595 -2.61225,3.83671c-0.01856,0.07239 0,0.13581 0.05445,0.19026c0.54417,0 1.26962,-0.06342 2.17698,-0.19026c1.16073,-0.1816 1.88649,-0.29018 2.17667,-0.32669z" fill="#ffffff"/></g></g></svg>