<svg version="1.1" xmlns="http://www.w3.org/2000/svg" xmlns:xlink="http://www.w3.org/1999/xlink" width="20.09366" height="23.77875" viewBox="0,0,20.09366,23.77875"><g transform="translate(-310.21913,-168.11063)"><g data-paper-data="{&quot;isPaintingLayer&quot;:true}" fill-rule="nonzero" stroke="none" stroke-width="1" stroke-linecap="butt" stroke-linejoin="miter" stroke-miterlimit="10" stroke-dasharray="" stroke-dashoffset="0" style="mix-blend-mode: normal"><path d="M330.14668,184.46976c-0.00321,0.0482 -0.00964,0.0964 -0.01928,0.1446c-0.09319,0.65552 -0.34383,1.2275 -0.7712,2.05333c-0.87403,1.73842 -2.27505,3.10088 -4.16449,4.04881c-1.42994,0.71658 -2.89522,1.10539 -4.35729,1.16323c-0.19923,0.00643 -0.37275,0.00964 -0.54627,0.00964c-4.75896,0 -7.38748,-2.2397 -8.75315,-4.11951c-0.24743,-0.3374 -0.42737,-0.71336 -0.53984,-1.1086c-0.52699,-1.12146 -0.76156,-2.23649 -0.6973,-3.3226c0.02571,-0.45629 0.10604,-0.97043 0.25064,-1.57775c0.00643,-0.45629 0.10283,-0.90616 0.28277,-1.32711c0.1928,-0.45308 0.40167,-0.88367 0.62339,-1.29498c-0.32133,-0.40488 -0.58483,-0.84511 -0.78727,-1.31747c-0.00964,-0.02249 -0.01928,-0.04499 -0.02892,-0.06748c-0.55912,-1.3721 -0.55912,-2.82132 0,-4.19341c0.00964,-0.02571 0.02249,-0.05141 0.03213,-0.07391c0.66516,-1.52634 1.82518,-2.82132 3.45113,-3.84316c1.56169,-0.98328 3.11052,-1.50063 4.60151,-1.53277h1.63238c1.64845,0 3.14265,0.34383 4.44084,1.02506c1.85089,0.964 3.11052,2.50962 3.63429,4.46976c0.21529,0.77442 0.41452,1.79305 0.10283,2.87916c-0.05784,0.21851 -0.12853,0.43059 -0.20887,0.63946c1.62595,1.73521 1.9987,3.47684 1.98585,4.74611c0.00964,0.41773 -0.00643,1.11824 -0.16388,2.5996z" fill="#00cccc"/><path d="M326.77299,181.89298c0.01832,0.39653 -0.02828,1.1327 -0.14107,2.20853c-0.0196,0.13239 -0.16067,0.45276 -0.42416,0.9624c-0.52795,1.05719 -1.39459,1.88752 -2.60024,2.49195c-0.98007,0.49068 -1.95018,0.75514 -2.91161,0.79273c-2.8451,0.09479 -4.9463,-0.79145 -6.30297,-2.65711c0,-0.05655 -0.00964,-0.12211 -0.02828,-0.19794c-0.39556,-0.71561 -0.57487,-1.36567 -0.53695,-1.94986c0.01864,-0.35765 0.12243,-0.87628 0.31105,-1.55462c-0.01928,-0.0376 -0.03792,-0.09415 -0.05655,-0.16934c0.65938,-1.5453 1.4881,-2.68539 2.48713,-3.42061c-1.41323,-0.48939 -2.29915,-1.14909 -2.65711,-1.97813c-0.20758,-0.50899 -0.20758,-1.01767 0,-1.52634c0.37693,-0.86664 1.07422,-1.62049 2.09157,-2.26123c1.01767,-0.6401 1.95018,-0.97043 2.7985,-0.98907c0.18798,0 0.48039,0 0.87628,0c0.2259,0 0.45212,0 0.67834,0c1.0739,0 2.00673,0.20758 2.79818,0.62275c0.97943,0.50964 1.60121,1.26477 1.86567,2.26509c0.1311,0.47236 0.16934,0.80269 0.11311,0.991c-0.26414,0.96272 -0.95211,1.81233 -2.06361,2.5485c0.22622,0.09447 0.52731,0.22654 0.90424,0.39621c0.2831,0.07583 0.6597,0.23586 1.1311,0.48136c1.14909,0.94344 1.705,1.92447 1.6674,2.94374zM324.82378,183.85441c0.15006,-0.8856 0.22526,-1.4505 0.22526,-1.69568c0,-0.75353 -0.25418,-1.357 -0.76124,-1.80879c-0.7516,-0.64042 -1.99099,-1.07422 -3.71912,-1.30044c-0.13175,-0.09415 -0.29145,-0.1883 -0.47911,-0.28245c-0.33837,-0.0376 -0.55494,-0.04691 -0.64845,-0.02828c-0.75192,0.09415 -1.54048,0.61246 -2.36663,1.55462c-0.92094,1.0363 -1.3811,2.07293 -1.3811,3.10923c0,1.11182 0.50674,1.98842 1.52152,2.62852c0.88303,0.56555 1.91612,0.848 3.09959,0.848c0.357,0 0.69537,-0.02828 1.01445,-0.08483c0.63849,-0.05655 1.33354,-0.3766 2.08514,-0.96079c0.82711,-0.64074 1.29658,-1.30076 1.40969,-1.9791zM323.04198,174.08263c-0.20758,-0.28438 -0.5935,-0.5453 -1.15873,-0.78277c-0.56523,-0.2365 -1.04562,-0.34576 -1.44118,-0.32744c-0.32069,0.01928 -0.73489,0.06619 -1.24356,0.14203c-0.15135,0.03792 -0.52795,0.15199 -1.13078,0.34126c-0.41484,0.15199 -0.8766,0.44633 -1.38527,0.88174c-0.60314,0.51253 -0.88592,0.9489 -0.848,1.30912c0.11311,1.06201 1.16837,1.61213 3.16579,1.65005c0.90424,-0.01896 1.63945,-0.11375 2.20468,-0.28438c0.30109,-0.07583 0.66838,-0.18959 1.10218,-0.34126c0.69697,-0.45501 1.04594,-1.01445 1.04594,-1.67897c0,-0.32166 -0.10411,-0.62532 -0.31105,-0.90938z" fill="#ffffff"/></g></g></svg>