<svg version="1.1" xmlns="http://www.w3.org/2000/svg" xmlns:xlink="http://www.w3.org/1999/xlink" width="17.54758" height="23.71643" viewBox="0,0,17.54758,23.71643"><g transform="translate(-311.93417,-168.99678)"><g data-paper-data="{&quot;isPaintingLayer&quot;:true}" fill-rule="nonzero" stroke="none" stroke-width="1" stroke-linecap="butt" stroke-linejoin="miter" stroke-miterlimit="10" stroke-dasharray="" stroke-dashoffset="0" style="mix-blend-mode: normal"><path d="M329.48175,173.8917c0,0.27671 -0.02767,0.55618 -0.08301,0.83012c-0.0166,0.08301 -0.03597,0.16326 -0.05811,0.2435c-0.31544,1.11512 -1.03211,2.96075 -2.24962,5.81082c-0.14665,0.42889 -0.67239,1.96461 -1.57445,4.59885c-0.19369,0.66686 -0.47317,1.60766 -0.83565,2.8224c-0.0083,0.03044 -0.01937,0.06088 -0.03044,0.09131c-0.00277,0.01384 -0.02214,0.07748 -0.0332,0.2186c-0.03597,0.55895 -0.11345,1.04041 -0.23243,1.46931c-0.21583,0.79691 -0.70283,1.50251 -1.38076,1.98675c-0.34311,0.24904 -0.73327,0.42059 -1.14279,0.50637c-0.07194,0.01937 -0.18539,0.04981 -0.34588,0.09408c-0.33758,0.09961 -0.689,0.14942 -1.04595,0.14942c-0.42059,0 -0.84672,-0.06918 -1.26731,-0.20753c-0.53127,-0.17709 -1.00167,-0.4953 -1.36139,-0.9159c-0.34311,-0.29331 -0.61705,-0.66133 -0.80245,-1.07638c-0.34311,-0.76647 -0.40676,-1.61873 -0.18816,-2.53186c0.11622,-0.52297 0.30438,-1.24794 0.57831,-2.21364c0.01384,-0.04981 0.03044,-0.10238 0.04704,-0.15219c0.2352,-0.689 0.58108,-1.74325 1.02934,-3.14061c0.04704,-0.13835 0.09961,-0.27117 0.16326,-0.39846c0.09685,-0.37355 0.19923,-0.7388 0.30991,-1.09852c-0.70283,0.51744 -1.56615,0.79968 -2.52079,0.79968c-0.51191,0 -1.02381,-0.08024 -1.52188,-0.2435c-1.36139,-0.43719 -2.29942,-1.50805 -2.50695,-2.8722c-0.00277,-0.01107 -0.00553,-0.02214 -0.00553,-0.0332c-0.08024,-0.55895 -0.07748,-1.30052 0.01107,-2.44608c-0.0166,-0.2186 -0.04427,-0.61152 -0.08301,-1.17877c0,-0.01384 -0.00277,-0.02767 -0.00277,-0.04151c-0.0166,-0.30161 -0.06088,-0.55895 -0.13005,-0.76094c-0.00553,-0.01107 -0.0083,-0.01937 -0.01107,-0.02767c-0.16326,-0.49254 -0.66133,-1.98121 0.31268,-3.33984c0.82458,-1.1677 2.1168,-1.83732 3.55013,-1.83732c1.1926,0 2.27452,0.487 3.03546,1.33095c0.15496,0.00553 0.30991,0.01937 0.4621,0.04427c1.07085,0.16602 2.1002,0.52297 3.07143,1.06532c0.69453,-0.80798 1.73494,-1.29498 2.94691,-1.29498c2.25792,0 3.89601,1.57722 3.89601,3.74936z" fill="#00cccc"/><path d="M326.41281,174.13493c-0.27615,0.97345 -0.9978,2.82323 -2.16633,5.54933c-0.03265,0.0974 -0.5761,1.6879 -1.6309,4.7704c-0.19452,0.66548 -0.4787,1.62288 -0.8517,2.87193c-0.09768,0.29248 -0.15828,0.61678 -0.18263,0.974c-0.02435,0.35667 -0.06918,0.6486 -0.13365,0.87605c-0.03265,0.12977 -0.1057,0.2352 -0.21915,0.31683c-0.01633,0 -0.20283,0.0487 -0.5595,0.14582c-0.1461,0.0487 -0.31655,0.04012 -0.51135,-0.02435c-0.06503,-0.114 -0.17875,-0.22745 -0.34062,-0.3409c-0.06503,-0.14582 -0.06503,-0.34865 0,-0.60792c0.09795,-0.45407 0.27754,-1.14307 0.5393,-2.06837c0.24322,-0.71362 0.59215,-1.77645 1.04678,-3.18792c0.01605,0 0.0487,-0.0404 0.0974,-0.12175c0.29137,-1.20118 0.65607,-2.32903 1.09354,-3.38383c0.30714,-0.7139 0.71224,-1.80108 1.21474,-3.26153c-0.06503,0.01633 -0.16243,0.02435 -0.2922,0.02435c-0.71418,-0.08107 -1.22553,-0.19065 -1.5335,-0.32873c-0.30825,-0.1378 -0.77062,-0.36913 -1.3874,-0.69398c-0.66548,-0.43802 -1.1439,-0.65718 -1.43583,-0.65718c-0.16243,0 -0.30438,0.09353 -0.42585,0.28003c-0.12175,0.18678 -0.23133,0.3694 -0.32873,0.5476c-0.0166,0.03265 -0.08938,0.16243 -0.21915,0.38932c-0.0974,0.30853 -0.3005,0.9004 -0.60848,1.77673c-0.21113,0.50305 -0.58385,0.75485 -1.11955,0.75485c-0.19452,0 -0.38932,-0.03237 -0.58413,-0.09768c-0.25955,-0.0808 -0.40565,-0.2269 -0.43802,-0.43802c-0.0487,-0.34062 -0.03265,-1.00582 0.0487,-1.99588c0,-0.01605 -0.03265,-0.487 -0.0974,-1.41175c-0.03265,-0.58413 -0.13005,-1.11125 -0.2922,-1.5822c-0.11373,-0.34062 -0.14582,-0.54345 -0.0974,-0.6082c0.25955,-0.37355 0.6165,-0.55978 1.07085,-0.55978c0.4217,0 0.73023,0.17875 0.92503,0.5357c0.11317,0.21085 0.15412,0.54373 0.12147,0.99752c-0.06503,0.50305 -0.057,0.84395 0.02435,1.02215c0.77865,-0.8921 1.43583,-1.29775 1.97153,-1.21667c0.73023,0.11345 1.43583,0.3647 2.11735,0.75458c0.37328,0.21113 0.73825,0.43028 1.0952,0.65718c0.4383,0.25955 0.79498,0.41367 1.07113,0.46237c0.19452,0.03265 0.52685,-0.08882 0.9978,-0.36497c0.24322,-0.14582 0.373,-0.46653 0.38932,-0.96155c0.01605,-0.49447 0.28362,-0.7424 0.803,-0.7424c0.5678,0 0.85198,0.23548 0.85198,0.70588c0.00055,0.0808 -0.00775,0.16187 -0.0238,0.24295z" fill="#ffffff"/></g></g></svg>