<svg version="1.1" xmlns="http://www.w3.org/2000/svg" xmlns:xlink="http://www.w3.org/1999/xlink" width="18.6173" height="23.62892" viewBox="0,0,18.6173,23.62892"><g transform="translate(-311.29318,-169.02554)"><g data-paper-data="{&quot;isPaintingLayer&quot;:true}" fill-rule="nonzero" stroke="none" stroke-width="1" stroke-linecap="butt" stroke-linejoin="miter" stroke-miterlimit="10" stroke-dasharray="" stroke-dashoffset="0" style="mix-blend-mode: normal"><path d="M329.91048,182.24532v1.6578c0,0.69658 -0.17034,1.51179 -0.60837,2.90495c-0.03954,0.12167 -0.08517,0.2403 -0.13688,0.35589c-0.20989,0.47453 -0.5384,0.95513 -1.29886,1.90723c-0.02129,0.02433 -0.04259,0.05171 -0.06388,0.07605c-1.95285,2.29354 -4.46236,3.50723 -7.2578,3.50723c-1.34145,0 -2.61901,-0.2981 -3.79924,-0.88821c-0.32243,-0.16122 -0.61445,-0.37414 -0.86996,-0.62966c-0.08213,-0.08213 -0.34373,-0.32243 -0.97947,-0.79392c-0.52319,-0.38327 -0.91559,-0.90646 -1.14373,-1.49962c-0.16122,-0.21901 -0.32852,-0.43802 -0.50494,-0.65703c-0.35589,-0.44715 -0.59316,-0.97643 -0.68745,-1.53612c-0.02129,-0.07605 -0.07605,-0.2403 -0.19164,-0.5384c-0.35589,-0.89734 -0.54753,-1.51483 -0.54753,-2.20837c0,-0.81521 0.25247,-1.6 0.71787,-2.2692c-0.13992,-0.21293 -0.26768,-0.44107 -0.38023,-0.68441c-0.24943,-0.53232 -0.34981,-1.11939 -0.2981,-1.70647c0,-0.01217 0.00913,-0.10342 0.01217,-0.33764c-0.05475,-0.39544 -0.11863,-0.91255 -0.19164,-1.54829c-0.06996,-0.62053 -0.18555,-1.60304 -0.34068,-2.95361c-0.1673,-1.21065 0.11559,-2.37871 0.8,-3.28822c0.89734,-1.21977 2.38175,-1.84943 4.38936,-1.84943c0.32548,0 0.72091,0.01521 1.20761,0.04867c0.23422,0.01521 0.41065,0.02433 0.52319,0.03042c0.73612,-0.0365 1.68517,-0.06084 2.88669,-0.07909c0.04867,-0.00304 0.18859,-0.02129 0.48669,-0.06996c0.67224,-0.11863 1.16198,-0.17034 1.58479,-0.17034c2.20228,0 3.90875,1.39924 4.24031,3.48593c0.0365,0.2251 0.04867,0.45323 0.03954,0.68137c-0.00608,0.11559 -0.01217,0.47453 0.04259,1.34753c0.08821,0.63574 0.13992,1.42662 -0.04867,2.22966c0.94297,0.92776 1.62738,2.06844 2.01369,3.37947c0.30722,1.07681 0.40456,1.57871 0.40456,2.09582z" fill="#00cccc"/><path d="M326.56387,183.90282c0,0.30357 -0.15179,0.93658 -0.45475,1.89962c-0.07148,0.16061 -0.35711,0.55331 -0.85627,1.17749c-1.32015,1.55194 -2.88974,2.32761 -4.70905,2.32761c-0.82038,0 -1.58783,-0.17856 -2.30084,-0.53506c-0.30327,-0.30357 -0.75833,-0.67802 -1.36426,-1.12396c-0.01825,-0.17795 -0.15179,-0.42799 -0.40122,-0.7492c-0.1965,-0.26738 -0.40152,-0.53506 -0.61536,-0.80274c-0.01825,-0.1962 -0.14297,-0.59741 -0.37445,-1.20396c-0.21414,-0.53536 -0.32122,-0.8651 -0.32122,-0.99011c0,-0.21384 0.11103,-0.40548 0.3346,-0.57521c0.22266,-0.16943 0.45901,-0.2543 0.70905,-0.2543c0.33856,0 0.57065,0.1603 0.69567,0.48152c0,0.17856 0.00852,0.45506 0.02677,0.82981c0.10707,0.51741 0.3565,1.08806 0.7492,1.71224c0.44563,0.69567 0.90038,1.16867 1.36426,1.4181c0.53536,0.26768 1.08776,0.40122 1.65901,0.40122c0.99863,0 1.8905,-0.38479 2.67559,-1.15377c0.42799,-0.41156 0.67802,-0.66251 0.7492,-0.75194c0.1962,-0.21445 0.36532,-0.51833 0.50859,-0.91224c-0.03589,-0.14297 -0.01825,-0.25034 0.05354,-0.32243c0.1603,-0.12502 0.22266,-0.43802 0.18707,-0.93932c0,-0.07087 0.01338,-0.18738 0.04015,-0.34859c0.02677,-0.16091 0.04046,-0.28624 0.04046,-0.37567c0,-0.01764 -0.06297,-0.40213 -0.18738,-1.15377c-0.05354,-0.05384 -0.10707,-0.1165 -0.1603,-0.18829c-0.10738,-0.96578 -0.72274,-1.69034 -1.84639,-2.17369c-0.87392,-0.37536 -1.77491,-0.53688 -2.70236,-0.48335c-0.28532,0.01856 -0.66494,0.06418 -1.13704,0.13688c-0.473,0.073 -0.81612,0.18281 -1.03027,0.32852c-0.7851,0.47513 -1.35574,0.71209 -1.71224,0.71209c-0.42799,0 -0.75833,-0.24973 -0.99011,-0.7492c0.01764,-0.1965 0.02677,-0.48183 0.02677,-0.85627c-0.05354,-0.37445 -0.12502,-0.9451 -0.21384,-1.71224c-0.07148,-0.62449 -0.18738,-1.62312 -0.34799,-2.99681c-0.05354,-0.35681 0,-0.64213 0.1603,-0.85627c0.24943,-0.33856 0.82008,-0.50829 1.71255,-0.50829c0.24943,0 0.57916,0.01338 0.98981,0.04015c0.41034,0.02677 0.6689,0.04015 0.77597,0.04015c0.71331,-0.03529 1.68578,-0.06205 2.9165,-0.0803c0.1962,0 0.52593,-0.04015 0.99011,-0.12046c0.46357,-0.08061 0.80274,-0.12046 1.01688,-0.12046c0.5527,0 0.8651,0.22327 0.93627,0.6689c-0.01795,0.3927 0,1.00776 0.05384,1.84609c0.10707,0.69567 0.0803,1.15042 -0.08061,1.36456c-0.35681,0.1603 -0.65156,0.24061 -0.88274,0.24061c-0.41065,0 -0.68715,-0.18707 -0.82981,-0.56183c-0.08943,-0.23179 -0.13354,-0.53536 -0.13354,-0.90981c0.01764,-0.48152 0.00882,-0.79331 -0.02677,-0.93627c-0.53506,-0.01764 -1.3378,0.00913 -2.40791,0.0803c-0.42829,0.03589 -1.43635,0.14297 -3.02358,0.32122c-0.05354,0.03589 -0.1162,0.0803 -0.18707,0.13354c-0.03589,0.26768 0,0.85627 0.10707,1.76609c0.12471,0.96335 0.18738,1.56107 0.18738,1.79285c0.01764,0 0.26738,-0.0803 0.7492,-0.24091c0.23148,-0.03529 0.57065,-0.08913 1.01658,-0.1603c0.5889,-0.14266 1.21278,-0.21414 1.87316,-0.21414c1.31985,0 2.47027,0.25886 3.45156,0.77597c1.15954,0.62479 1.91726,1.54312 2.27437,2.7562c0.17825,0.62449 0.26768,1.00776 0.26768,1.15042v1.65901z" fill="#ffffff"/></g></g></svg>