<svg version="1.1" xmlns="http://www.w3.org/2000/svg" xmlns:xlink="http://www.w3.org/1999/xlink" width="18.48093" height="23.29998" viewBox="0,0,18.48093,23.29998"><g transform="translate(-310.8684,-169.31001)"><g data-paper-data="{&quot;isPaintingLayer&quot;:true}" fill-rule="nonzero" stroke="none" stroke-width="1" stroke-linecap="butt" stroke-linejoin="miter" stroke-miterlimit="10" stroke-dasharray="" stroke-dashoffset="0" style="mix-blend-mode: normal"><path d="M328.47228,188.0525c-0.50332,1.41482 -1.61123,2.55342 -3.39126,3.49254c-0.01535,0.00614 -0.03069,0.01535 -0.04297,0.02148c-1.35957,0.6936 -2.7836,1.04347 -4.23218,1.04347c-2.00407,0 -3.91607,-0.67518 -5.67768,-2.00407c-0.01228,-0.00921 -0.02455,-0.01841 -0.03683,-0.02762c-0.41739,-0.32532 -0.80408,-0.7335 -1.86596,-2.18207c-0.09821,-0.1289 -0.18414,-0.267 -0.26087,-0.41125l-0.29769,-0.5647c-0.20562,-0.27007 -0.39897,-0.58311 -0.59539,-0.9514c-0.10435,-0.19642 -0.18721,-0.39897 -0.24859,-0.61073c-0.18414,-0.60767 -0.41125,-1.47927 -0.69667,-2.66084c-0.01535,-0.06138 -0.02762,-0.12583 -0.0399,-0.18721c-0.14731,-0.80101 -0.2179,-1.72479 -0.2179,-2.82043c0,-1.50382 0.02148,-1.80458 0.06138,-2.09614c0.01228,-0.07059 0.02455,-0.14424 0.0399,-0.21483c0.089,-0.42659 0.267,-1.05574 0.96981,-2.73756c0.08286,-0.20256 0.18721,-0.3959 0.30997,-0.58004c0.089,-0.13197 0.21176,-0.31918 0.36828,-0.56163c0.78567,-1.3964 1.9519,-2.54422 3.46185,-3.40661c1.3074,-0.73656 2.66391,-1.16009 4.0511,-1.27057c0.089,-0.00921 0.18107,-0.01228 0.27007,-0.01228c0.19028,0 0.3468,0.00614 1.58668,0.12276c0.11662,0.01228 0.23018,0.02762 0.34373,0.05217c0.14117,0.02762 0.32225,0.07059 1.36264,0.33452c0.01228,0.00307 0.02455,0.00614 0.03683,0.00921c0.92377,0.24859 1.75241,0.7826 2.45828,1.58975c1.01891,1.15702 1.23068,2.31097 1.23068,3.07516c0,0.92684 -0.31918,1.82607 -0.90229,2.54422c0.77646,0.73656 1.39947,1.5652 1.85062,2.46749c0.13504,0.23631 0.28849,0.53401 0.47877,0.93298c0.07059,0.15038 0.13197,0.3069 0.18107,0.46649c0.15959,0.5248 0.24859,1.11098 0.27928,1.84448v0.0399c0.01228,0.39897 0.02148,0.68746 0.02455,0.86546c0.09207,1.09871 -0.17187,2.43373 -0.85933,4.3979z" fill="#00cccc"/><path d="M325.96121,183.86237c0.07182,0.55795 -0.15284,1.58361 -0.67457,3.0773c-0.19826,0.55795 -0.79211,1.09748 -1.78187,1.61952c-0.88204,0.44961 -1.78187,0.67488 -2.69951,0.67488c-1.25983,0 -2.47486,-0.44132 -3.64446,-1.32305c-0.16204,-0.12583 -0.56715,-0.62946 -1.21472,-1.5118l-0.45913,-0.86362c-0.12583,-0.12583 -0.26977,-0.34158 -0.43181,-0.64787c-0.16174,-0.53984 -0.3778,-1.36725 -0.64756,-2.48345c-0.10834,-0.59416 -0.16204,-1.33195 -0.16204,-2.21368c0,-0.95354 0.0089,-1.49369 0.02701,-1.61952c0.07151,-0.34158 0.33299,-1.05329 0.78291,-2.13266c0.10834,-0.16174 0.26087,-0.3956 0.45882,-0.70188c0.48613,-0.89984 1.23282,-1.63763 2.24069,-2.21368c0.86393,-0.48613 1.74566,-0.7648 2.64549,-0.83692c0.08992,0 0.51314,0.03621 1.26904,0.10803c0.08992,0.01811 0.48583,0.11754 1.18771,0.29708c0.27007,0.07212 0.53524,0.25626 0.79641,0.55365c0.26087,0.29677 0.3913,0.58035 0.3913,0.85012c0,0.16204 -0.05401,0.30629 -0.16174,0.43212c-0.16174,0.17984 -0.39621,0.27928 -0.70188,0.29677c-0.28787,0.03652 -0.51314,0 -0.67488,-0.10803c-0.09023,-0.19795 -0.3333,-0.44961 -0.72889,-0.7559c-0.45022,-0.17984 -0.89063,-0.26977 -1.32275,-0.26977c-1.27825,0 -2.39383,0.71999 -3.34738,2.15967c-0.84613,1.29543 -1.20612,2.48345 -1.07999,3.56282c1.20551,-1.1696 2.72652,-1.75456 4.5621,-1.75456c0.28787,0 0.58465,0.01811 0.89063,0.05401c0.0178,0 0.07182,0.02701 0.16204,0.08102c0.68378,0 1.41267,0.3244 2.18668,0.97196c0.70188,0.57636 1.22362,1.22392 1.56581,1.94361c0.08992,0.14455 0.22465,0.4048 0.4048,0.78291c0.07151,0.23447 0.11693,0.56715 0.13473,0.99897c0.01749,0.59385 0.02701,0.91794 0.02701,0.97196zM324.31438,183.87679c0.05401,-1.19139 -0.20716,-2.13941 -0.78291,-2.84375c-0.86393,-1.10116 -1.95282,-1.65205 -3.26666,-1.65205c-1.22392,0 -2.50156,0.76756 -3.8332,2.30207c-0.07212,0.03621 -0.17125,0.09023 -0.29708,0.16235c0.3778,2.0768 0.95354,3.55699 1.72786,4.44148c0.86362,0.97533 1.82637,1.43569 2.88825,1.38167c0.41401,0.05401 0.88633,-0.00491 1.41727,-0.17616c0.53063,-0.17094 0.92224,-0.41063 1.17451,-0.71754c0.59416,-0.70434 0.91825,-1.66985 0.97196,-2.89807z" fill="#ffffff"/></g></g></svg>