<svg version="1.1" xmlns="http://www.w3.org/2000/svg" xmlns:xlink="http://www.w3.org/1999/xlink" width="18.84128" height="23.94581" viewBox="0,0,18.84128,23.94581"><g transform="translate(-311.24153,-168.45413)"><g data-paper-data="{&quot;isPaintingLayer&quot;:true}" fill-rule="nonzero" stroke="none" stroke-width="1" stroke-linecap="butt" stroke-linejoin="miter" stroke-miterlimit="10" stroke-dasharray="" stroke-dashoffset="0" style="mix-blend-mode: normal"><path d="M330.08281,178.43094c0,1.26871 -0.02958,2.46512 -0.09203,3.55634c-0.00329,0.02629 -0.00329,0.0493 -0.00657,0.07231c-0.12819,1.66971 -0.44701,3.07976 -0.97619,4.30903c-0.65079,1.47907 -1.68285,2.82338 -3.06989,4.02307c-0.22679,0.19392 -0.4733,0.35826 -0.73954,0.48974l-0.77569,0.38785c-1.24899,0.66065 -2.72806,1.03864 -4.39449,1.12081c-0.01315,0.00329 -0.02301,0.00329 -0.03287,0.00329c-0.11504,0.00329 -0.22679,0.00657 -0.33526,0.00657c-1.5974,0 -3.0929,-0.46016 -4.45036,-1.36403c-0.19721,-0.13147 -0.38127,-0.28267 -0.55219,-0.4503c-0.39442,-0.39771 -0.6245,-0.80856 -0.78226,-1.12081c-0.2991,-0.60478 -0.44701,-1.19969 -0.44701,-1.81104c0,-0.3484 0.0493,-0.69023 0.14462,-1.01892c0.11175,-0.61464 0.3484,-1.18983 0.70995,-1.696c-0.85129,-0.68366 -1.51851,-1.48564 -1.98524,-2.39938c-0.6245,-1.20626 -0.96961,-2.47169 -1.03535,-3.75684c-0.12161,-2.23504 0.28595,-4.00664 1.24899,-5.39368c0.87758,-1.272 2.12,-2.40596 3.68124,-3.35585c1.696,-1.02878 3.27368,-1.54481 4.81849,-1.57768c0.11504,-0.00329 0.23008,0 0.34183,0.00657c0.61792,0.04602 0.99591,0.07231 1.12738,0.08217c0.15119,0.00657 0.30239,0.01972 0.4503,0.04602c1.52509,0.25637 2.53743,0.92688 3.15864,1.51523c0.10518,0.08874 0.23008,0.2005 0.37798,0.32868c0.16105,0.14133 0.30567,0.2991 0.44043,0.46673l0.86115,1.09451c0.53575,0.66723 0.91702,1.27529 1.17997,1.88006c0.14133,0.25309 0.30567,0.55876 0.49302,0.91702c0.04602,0.08874 0.08874,0.17749 0.12819,0.26952c0.35498,0.84471 0.51274,1.88335 0.51274,3.369z" fill="#00cccc"/><path d="M326.46764,178.42995c0,1.21415 -0.02958,2.33233 -0.08743,3.35355c-0.0963,1.25294 -0.32737,2.30341 -0.69319,3.15141c-0.42433,0.96435 -1.12804,1.86955 -2.1108,2.71755c-0.19294,0.09696 -0.46246,0.23172 -0.80955,0.40494c-0.79048,0.42433 -1.76338,0.66492 -2.92002,0.72277c-0.94463,0.03846 -1.82156,-0.212 -2.6311,-0.7517c-0.01939,-0.01939 -0.05325,-0.07691 -0.10123,-0.17322c-0.04799,-0.0963 -0.07231,-0.16368 -0.07231,-0.2028c0.01906,-0.01873 0.04832,-0.0378 0.08743,-0.05785c-0.0779,-0.57782 0.24125,-0.86739 0.95745,-0.86739c0.25144,0 0.47363,0.04832 0.66755,0.14462c0.05785,0.07724 0.16467,0.16401 0.31948,0.26032c0.34807,0.1157 0.69615,0.17322 1.04521,0.17322c1.16058,0 2.18607,-0.52063 3.07614,-1.56124c0.85063,-0.9637 1.27693,-1.97538 1.27693,-3.03571c0,-0.19228 -0.01939,-0.36582 -0.05785,-0.51998c-0.94759,0.90585 -2.17489,1.35844 -3.68289,1.35844c-1.1024,0 -2.1509,-0.25473 -3.14615,-0.76583c-0.99558,-0.51044 -1.68713,-1.14217 -2.07366,-1.89387c-0.38686,-0.7517 -0.59952,-1.51293 -0.63764,-2.28401c-0.07724,-1.40643 0.1249,-2.45756 0.60708,-3.15141c0.59722,-0.86739 1.46001,-1.64276 2.58739,-2.32707c1.12771,-0.68399 2.13446,-1.03601 3.02125,-1.0554c0.78982,0.05785 1.20429,0.08677 1.24308,0.08677c0.57815,0.09696 1.02122,0.30863 1.32985,0.63633c0.0963,0.07691 0.23139,0.19294 0.40494,0.34709c0.28891,0.36615 0.57782,0.73263 0.86739,1.09879c0.38522,0.48218 0.63567,0.88646 0.7517,1.21382c0.1341,0.23139 0.31784,0.56862 0.5489,1.01201c0.15415,0.36615 0.23205,1.02155 0.23205,1.96585zM324.29899,176.29023c-0.03911,-0.01873 -0.10156,-0.13936 -0.18801,-0.36122c-0.08677,-0.22153 -0.19787,-0.33263 -0.3323,-0.33263c-0.11602,-0.61661 -0.34709,-1.03075 -0.69385,-1.24308c-0.21233,-0.13476 -0.37601,-0.2406 -0.49138,-0.31816l0.02892,-0.02892c-0.05785,-0.09598 -0.17354,-0.15415 -0.34709,-0.17354c-0.1157,0 -0.23139,0 -0.34709,0c-0.63633,-0.13443 -1.08893,-0.17322 -1.35877,-0.1157c-0.59754,0.1157 -1.2628,0.45325 -1.99477,1.01201c-0.79048,0.57815 -1.30125,1.16617 -1.53232,1.76338c-0.15448,0.36615 -0.24125,0.77142 -0.26032,1.21415c-0.03878,0.50124 0.03418,1.08432 0.21792,1.74925c0.1834,0.6646 0.6623,1.26707 1.43601,1.80677c0.77372,0.54003 1.50865,0.79048 2.20513,0.7517c0.94792,0.13509 1.87678,-0.28924 2.78624,-1.272c0.85063,-0.9443 1.27627,-1.93725 1.27627,-2.97819c0,-0.5203 -0.14429,-0.9637 -0.4332,-1.32985c0.01841,-0.03747 0.0286,-0.08579 0.0286,-0.14396z" fill="#ffffff"/></g></g></svg>